<svg id="Livello_1" data-name="Livello 1" xmlns="http://www.w3.org/2000/svg" viewBox="0 0 889.13 174.67"><defs><style>.cls-1{fill:#009640;}.cls-2{fill:#e30613;}.cls-3{fill:#fff;}.cls-4{fill:#164194;}.cls-5{fill:#7882bf;}.cls-6{fill:#e30b17;}.cls-7{fill:#1d1d1b;}</style></defs><title>Tavola disegno 1</title><path class="cls-1" d="M506.35,87.27A82.37,82.37,0,0,0,456,163.15H437.08a101.3,101.3,0,0,1,60.86-92.88Z"/><path class="cls-2" d="M570.5,87.27a82.37,82.37,0,0,1,50.33,75.89h18.94a101.32,101.32,0,0,0-61.9-93.33Z"/><path class="cls-3" d="M570.53,87.18a82.2,82.2,0,0,0-64.73-.23l-7.37-17.44a101.09,101.09,0,0,1,79.47.24l-7.37,17.44Z"/><path class="cls-4" d="M650.75,114.1a3.72,3.72,0,0,0-5-1.89l-14.52,6.09a103.32,103.32,0,0,0-48.58-48.19l6.08-14.51a3.72,3.72,0,1,0-6.83-2.94L575.47,67a103.34,103.34,0,0,0-74.14.1l-6.47-14.47A3.72,3.72,0,1,0,488,55.6l6.13,14.63a103.33,103.33,0,0,0-48.38,48.18L431,112.21a3.72,3.72,0,1,0-3,6.82l14.6,6.55a102.58,102.58,0,0,0-7.06,37.51v1.6h22.14v-1.6a80.54,80.54,0,0,1,5.17-28.43l57.25,25.67a18.93,18.93,0,0,0-.2,2.75h37.88a19.17,19.17,0,0,0-.3-3.16l56.61-25.38a80.5,80.5,0,0,1,5.21,28.55v1.6h22.14v-1.6a102.59,102.59,0,0,0-7.1-37.63L648.72,119A3.72,3.72,0,0,0,650.75,114.1ZM609.06,92.6a100,100,0,0,1,19.21,26.93l-14.54,6.1a84.31,84.31,0,0,0-38.41-38l6.09-14.55A100,100,0,0,1,609.06,92.6Zm-70.53-29.2A99.56,99.56,0,0,1,574.16,70l-6.44,14.4a84.19,84.19,0,0,0-58.65.11l-6.44-14.4A99.55,99.55,0,0,1,538.53,63.41ZM468,92.6a100,100,0,0,1,27.4-19.42l6.1,14.55a84.31,84.31,0,0,0-38.23,38l-14.54-6.1A100,100,0,0,1,468,92.6Zm-13.46,68.89H438.8a99.3,99.3,0,0,1,6.77-34.6L460,133.34A83.66,83.66,0,0,0,454.54,161.49ZM524,151.25,466.25,127a80.77,80.77,0,0,1,36.49-36.31l24.19,57.7A18.3,18.3,0,0,0,524,151.25Zm14.85-7.09a18.37,18.37,0,0,0-3,.23l-25.47-57a81.15,81.15,0,0,1,56-.11l-25.49,57A20.06,20.06,0,0,0,538.88,144.15Zm14.53,6.76a18.61,18.61,0,0,0-3.32-3.07l24-57.28a80.79,80.79,0,0,1,36.67,36.31Zm84.85,10.58H622.53a83.66,83.66,0,0,0-5.46-28.27l14.38-6.45A99.3,99.3,0,0,1,638.27,161.49Z"/><path class="cls-4" d="M548.55,46.64h6.53l.82-11.95a39.65,39.65,0,0,0,0-4.45H556s.89,2.78,1.48,4.45l2.78,7.68h5.57l2.78-7.68c.59-1.67,1.48-4.45,1.48-4.45h.07a39.65,39.65,0,0,0,0,4.45L571,46.64h6.49L575.3,20.11h-7l-3.86,11.21c-.59,1.71-1.34,4.38-1.34,4.38H563s-.74-2.67-1.34-4.38l-3.86-11.21h-7l-2.19,26.53Z"/><path class="cls-4" d="M516.49,46.64h6.68l-9-26.53h-6.83l-9,26.53H505l1.59-5.57h8.28l1.63,5.57Zm-5.71-20.48s.59,2.89,1.08,4.56l1.48,5.16H508.1l1.52-5.16c.48-1.67,1.08-4.56,1.08-4.56Zm13.51,20.48h9.43c8.35,0,13.69-5,13.69-13.32s-5.34-13.21-13.69-13.21h-9.43V46.64Zm6.49-5.57V25.67h2.67c4.38,0,7.24,2.6,7.24,7.64s-2.75,7.76-7.24,7.76Z"/><polygon class="cls-4" points="85.36 11.97 87.73 18.15 94.33 18.48 89.19 22.64 90.92 29.02 85.38 25.42 79.84 29.03 81.55 22.64 76.41 18.5 83 18.15 85.36 11.97 85.36 11.97"/><polygon class="cls-4" points="123.41 22.32 122.35 28.85 127.89 32.45 121.36 33.47 119.64 39.85 116.66 33.96 110.06 34.3 114.75 29.64 112.38 23.46 118.26 26.48 123.41 22.32 123.41 22.32"/><polygon class="cls-4" points="150.86 49.95 146.7 55.1 149.72 60.97 143.55 58.61 138.89 63.3 139.23 56.7 133.33 53.72 139.71 52 140.72 45.47 144.33 51.01 150.86 49.95 150.86 49.95"/><polygon class="cls-4" points="160.97 87.57 154.8 89.97 154.5 96.57 150.32 91.45 143.95 93.21 147.52 87.66 143.88 82.13 150.27 83.81 154.4 78.65 154.77 85.24 160.97 87.57 160.97 87.57"/><polygon class="cls-4" points="150.87 125.56 144.34 124.55 140.77 130.11 139.71 123.59 133.32 121.92 139.19 118.89 138.81 112.29 143.5 116.95 149.66 114.55 146.68 120.44 150.87 125.56 150.87 125.56"/><polygon class="cls-4" points="123.81 152.98 118.61 148.88 112.78 151.98 115.06 145.78 110.31 141.18 116.91 141.43 119.82 135.5 121.62 141.85 128.16 142.79 122.67 146.46 123.81 152.98 123.81 152.98"/><polygon class="cls-4" points="85.31 163.57 82.92 157.4 76.31 157.1 81.43 152.92 79.68 146.55 85.23 150.12 90.76 146.49 89.07 152.87 94.23 157 87.64 157.37 85.31 163.57 85.31 163.57"/><polygon class="cls-4" points="47.78 153.7 48.75 147.16 43.16 143.63 49.68 142.53 51.31 136.12 54.37 141.98 60.97 141.56 56.34 146.27 58.78 152.41 52.87 149.48 47.78 153.7 47.78 153.7"/><polygon class="cls-4" points="20.07 126.59 24.15 121.38 21.04 115.55 27.25 117.82 31.83 113.05 31.59 119.66 37.54 122.55 31.18 124.37 30.27 130.91 26.58 125.43 20.07 126.59 20.07 126.59"/><polygon class="cls-4" points="9.37 87.94 15.54 85.55 15.84 78.94 20.02 84.06 26.39 82.3 22.82 87.86 26.46 93.38 20.07 91.7 15.94 96.87 15.57 90.27 9.37 87.94 9.37 87.94"/><polygon class="cls-4" points="19.39 50.11 25.93 51.11 29.48 45.54 30.55 52.06 36.95 53.72 31.08 56.75 31.48 63.35 26.78 58.7 20.63 61.12 23.59 55.22 19.39 50.11 19.39 50.11"/><polygon class="cls-4" points="47.32 22.1 52.46 26.26 58.34 23.23 55.98 29.41 60.67 34.06 54.07 33.73 51.09 39.63 49.37 33.25 42.84 32.24 48.38 28.64 47.32 22.1 47.32 22.1"/><path class="cls-4" d="M77.56,77.66C82.49,79.54,86,81,90.27,82.26a47.68,47.68,0,0,0,28.19,0,23,23,0,0,0,7.22-3.83v0L133,72.81H96.44L85.35,36.92,74.23,72.81H64.17c4.53,1.49,9,3.16,13.4,4.85Z"/><path class="cls-1" d="M55.63,81.14a203.07,203.07,0,0,1,21.93,7.37c4.93,1.89,8.48,3.3,12.71,4.61a47.34,47.34,0,0,0,13.59,2.1l7.77-6a47.74,47.74,0,0,1-21.36-1.55C86,86.39,82.49,85,77.56,83.09a203.7,203.7,0,0,0-21.93-7.37,47.63,47.63,0,0,0-11.88-1.5h-.16a24,24,0,0,0-3.72.3l6.79,5.22a47.64,47.64,0,0,1,9,1.41Z"/><path class="cls-2" d="M67.23,95.56c3.48,1.21,6.92,2.51,10.34,3.81,4.93,1.89,8.48,3.3,12.71,4.61a47.41,47.41,0,0,0,14,2.11c.77,0,1.54,0,2.3-.06L105,100.66h-.66a47.46,47.46,0,0,1-14-2.11c-4.23-1.31-7.77-2.72-12.71-4.61a203.62,203.62,0,0,0-21.93-7.37l-.12,0,11.72,9Z"/><path class="cls-4" d="M104.31,111.53a47.48,47.48,0,0,1-14-2.11c-4.23-1.31-7.77-2.72-12.71-4.61-3.91-1.5-7.84-3-11.83-4.32L56.15,132l29.2-22.32L114.5,132l-6.27-20.59c-1.29.11-2.6.16-3.92.16Z"/><path class="cls-5" d="M214.79,70.64h6.08l-8.21-24.15h-6.21l-8.21,24.15h6.08l1.45-5.07h7.53l1.49,5.07ZM209.59,52s.54,2.63,1,4.15l1.35,4.69h-4.76l1.38-4.69c.44-1.52,1-4.15,1-4.15ZM226,58.52c0,7.9,5.67,12.53,11.85,12.53A10,10,0,0,0,244.16,69h.07s0,.51,0,1v.68h4.93V57h-8.65v5h3.41v1.86a8.26,8.26,0,0,1-4.9,1.76c-3.75,0-6.92-2.74-6.92-7.33,0-3.58,2.06-6.82,7.13-6.82a9.61,9.61,0,0,1,5.88,2.23l2.84-4.42s-3.11-3.21-9.29-3.21A12.23,12.23,0,0,0,226,58.52Zm31.76,12.12h15.6V65.57h-9.69V61H271V55.95h-7.36V51.56h9.22V46.49H257.72V70.64Zm24,0h5.91V59.39c0-1.52-.27-4.12-.27-4.12h.07a43.12,43.12,0,0,0,2,4.12l6.72,11.25h5.94V46.49H296.2V57.77c0,1.52.27,4.12.27,4.12h-.07a43.13,43.13,0,0,0-2-4.12l-6.69-11.28h-6V70.64Zm28.65,0h18.85V65.57h-9.52a15.9,15.9,0,0,0-1.86.1v-.07a13.38,13.38,0,0,0,1.86-2.19L329,50.14V46.49H310.8v5.07h8.88a15.85,15.85,0,0,0,1.86-.1v.07a13.31,13.31,0,0,0-1.86,2.19l-9.32,13.2v3.72Zm27.24,0h5.91V46.49H337.6V70.64Zm29.3,0H373l-8.21-24.15h-6.21l-8.21,24.15h6.08l1.45-5.07h7.53l1.49,5.07ZM361.7,52s.54,2.63,1,4.15L364,60.85h-4.76l1.38-4.69c.44-1.52,1-4.15,1-4.15Z"/><path class="cls-4" d="M198.48,130h5.94l.74-10.87a35.74,35.74,0,0,0,0-4.05h.07s.81,2.53,1.35,4.05l2.53,7h5.07l2.53-7c.54-1.52,1.35-4.05,1.35-4.05h.07a35.93,35.93,0,0,0,0,4.05l.74,10.87h5.91l-2-24.15h-6.42L212.9,116c-.54,1.55-1.22,4-1.22,4h-.07s-.68-2.43-1.22-4l-3.51-10.2h-6.42l-2,24.15Zm27.81-12.23a12.63,12.63,0,1,0,25.26,0,12.63,12.63,0,0,0-25.26,0Zm6.11,0a6.53,6.53,0,1,1,13,0c0,4.12-2.9,7.23-6.52,7.23s-6.52-3.11-6.52-7.23ZM253.8,130h5.91V118.72c0-1.52-.27-4.12-.27-4.12h.07a43.26,43.26,0,0,0,2,4.12L268.25,130h5.94V105.82h-5.91V117.1c0,1.52.27,4.12.27,4.12h-.07a43.11,43.11,0,0,0-2-4.12l-6.69-11.28h-6V130Zm22.64-12.23a12.63,12.63,0,0,0,25.26,0,12.63,12.63,0,0,0-25.26,0Zm6.11,0a6.53,6.53,0,1,1,13,0c0,4.12-2.9,7.23-6.52,7.23s-6.52-3.11-6.52-7.23ZM303.95,130h5.91v-7.46H314c4.69,0,7.87-3.51,7.87-8.38s-3.17-8.31-7.87-8.31h-10V130Zm5.91-12.53v-6.55h3c2,0,3,1.32,3,3.24s-1,3.31-3.07,3.31Zm12.07.3a12.63,12.63,0,1,0,25.26,0,12.63,12.63,0,0,0-25.26,0Zm6.11,0a6.53,6.53,0,1,1,13,0c0,4.12-2.9,7.23-6.52,7.23s-6.52-3.11-6.52-7.23ZM349.43,130H365.2V124.9h-9.86V105.82h-5.91V130Zm17.24,0h5.91V105.82h-5.91V130Z"/><path class="cls-4" d="M198.53,100.23h8.58c7.6,0,12.46-4.52,12.46-12.12s-4.86-12-12.46-12h-8.58v24.15Zm5.91-5.07v-14h2.43c4,0,6.59,2.36,6.59,7s-2.5,7.06-6.59,7.06ZM228.34,88a12.63,12.63,0,0,0,25.26,0,12.63,12.63,0,0,0-25.26,0Zm6.11,0a6.53,6.53,0,1,1,13,0c0,4.12-2.9,7.23-6.52,7.23s-6.52-3.11-6.52-7.23Zm27.83.1c0,7.9,5.67,12.53,11.85,12.53a10,10,0,0,0,6.35-2.09h.07s0,.51,0,1v.68h4.93V86.59H276.8v5h3.41v1.86a8.26,8.26,0,0,1-4.9,1.76c-3.75,0-6.92-2.73-6.92-7.33,0-3.58,2.06-6.82,7.13-6.82a9.61,9.61,0,0,1,5.88,2.23l2.84-4.42s-3.11-3.21-9.29-3.21a12.22,12.22,0,0,0-12.66,12.43Zm47.48,12.12h6.08l-8.21-24.15h-6.21l-8.21,24.15h6.08l1.45-5.07h7.53l1.49,5.07Zm-5.2-18.64s.54,2.63,1,4.15l1.35,4.69h-4.76l1.38-4.69c.44-1.52,1-4.15,1-4.15Zm20.26,18.64h5.91V89c0-1.52-.27-4.12-.27-4.12h.07a43.37,43.37,0,0,0,2,4.12l6.72,11.25h5.94V76.09h-5.91V87.37c0,1.52.27,4.12.27,4.12h-.07a43.11,43.11,0,0,0-2-4.12L330.8,76.09h-6v24.15Zm32.35,0h15.6V95.17h-9.69V90.61h7.36V85.54h-7.36V81.15h9.22V76.09H357.17v24.15Z"/><polygon class="cls-4" points="178.84 11.97 178.84 163.57 180.92 163.57 180.92 11.97 178.84 11.97 178.84 11.97"/><path class="cls-6" d="M783.65,169.05a80.83,80.83,0,1,1,80.83-80.83A80.92,80.92,0,0,1,783.65,169.05Zm0-146.67a65.83,65.83,0,1,0,65.83,65.83A65.91,65.91,0,0,0,783.65,22.39Z"/><path class="cls-7" d="M752,61.54a11.19,11.19,0,0,1,3.09.36,6.28,6.28,0,0,1,1.87.83,2.82,2.82,0,0,1,1,1.51,7.45,7.45,0,0,1,.36,1.72q0,.68,0,2.12v40a20.76,20.76,0,0,1-.11,2.48,5.76,5.76,0,0,1-.68,1.9,3.16,3.16,0,0,1-1.94,1.51,12.59,12.59,0,0,1-3.67.43,12.26,12.26,0,0,1-3.59-.43,3.19,3.19,0,0,1-1.94-1.47,5.39,5.39,0,0,1-.68-1.94,23.78,23.78,0,0,1-.11-2.62V82.31l-.93.86q-2.95,2.23-4.89,2.23a5.61,5.61,0,0,1-4.17-2.16q-2.59-2.87-2.59-4.89t2.59-4.17l11.79-10.64.22-.14A6,6,0,0,1,752,61.54Z"/><path class="cls-7" d="M801.26,97.41a16.12,16.12,0,0,1-5.86,13,19.78,19.78,0,0,1-13,4.92,20.43,20.43,0,0,1-13.48-4.89,16.09,16.09,0,0,1-5.86-13,12.56,12.56,0,0,1,1.47-5.86,14.69,14.69,0,0,1,2.91-4.13l1.51-1.37q-.5-.43-1.22-1.15a13.26,13.26,0,0,1-1.91-3.13,11.18,11.18,0,0,1-1.19-5,14.73,14.73,0,0,1,5.32-11.64,18.42,18.42,0,0,1,12.43-4.6,17.55,17.55,0,0,1,12.15,4.67,15.36,15.36,0,0,1,5.17,11.93,10.3,10.3,0,0,1-1,4.38,13.09,13.09,0,0,1-2.12,3.38l-1.08,1.15a18.71,18.71,0,0,1,1.62,1.47,19.24,19.24,0,0,1,2.59,3.92A12.28,12.28,0,0,1,801.26,97.41Zm-23.86,4a6.36,6.36,0,0,0,4.82,1.72,6.12,6.12,0,0,0,4.74-1.72,5.44,5.44,0,0,0,1.58-3.74A5.3,5.3,0,0,0,786.92,94a6.34,6.34,0,0,0-4.85-1.73A6.24,6.24,0,0,0,777.4,94a5.2,5.2,0,0,0-1.65,3.7A5.32,5.32,0,0,0,777.4,101.43Zm4.74-28.68A4.72,4.72,0,0,0,778.55,74a3.7,3.7,0,0,0,.11,5.46,4.83,4.83,0,0,0,3.63,1.29,4.5,4.5,0,0,0,3.49-1.29A4,4,0,0,0,787,76.71a3.83,3.83,0,0,0-1.22-2.7A4.79,4.79,0,0,0,782.14,72.76Z"/><path class="cls-7" d="M827.71,82.93h5.82a16.57,16.57,0,0,1,2.23.11,5.27,5.27,0,0,1,1.65.61,2.85,2.85,0,0,1,1.33,1.72,11.14,11.14,0,0,1,.39,3.31,11.83,11.83,0,0,1-.36,3.23,2.65,2.65,0,0,1-1.22,1.69,4.94,4.94,0,0,1-1.54.58,14.94,14.94,0,0,1-2.12.11h-6.18v5.82a16.65,16.65,0,0,1-.11,2.23A5.25,5.25,0,0,1,827,104a2.84,2.84,0,0,1-1.72,1.33,11.11,11.11,0,0,1-3.31.39,10.79,10.79,0,0,1-3.23-.39A2.69,2.69,0,0,1,817,104a5.61,5.61,0,0,1-.58-1.69,17.38,17.38,0,0,1-.11-2.26V94.28H810.1a14.94,14.94,0,0,1-2.12-.11,4.94,4.94,0,0,1-1.54-.58,2.66,2.66,0,0,1-1.22-1.72,12.19,12.19,0,0,1-.36-3.27,11.17,11.17,0,0,1,.4-3.27,2.68,2.68,0,0,1,1.37-1.73,6.07,6.07,0,0,1,1.72-.58,17.47,17.47,0,0,1,2.26-.11h5.75V77.11a16.5,16.5,0,0,1,.11-2.23,5.68,5.68,0,0,1,.58-1.65,2.71,2.71,0,0,1,1.72-1.33,13.72,13.72,0,0,1,6.54,0A2.72,2.72,0,0,1,827,73.22a5.66,5.66,0,0,1,.58,1.69,17.55,17.55,0,0,1,.11,2.26Z"/></svg>